<svg xmlns="http://www.w3.org/2000/svg" viewBox="0 0 512 512">
  <defs>
    <linearGradient id="grad" x1="0%" y1="0%" x2="100%" y2="100%">
      <stop offset="0%" style="stop-color:#6c5ce7;stop-opacity:1" />
      <stop offset="100%" style="stop-color:#a29bfe;stop-opacity:1" />
    </linearGradient>
  </defs>
  <mask id="cutout">
    <rect width="100%" height="100%" fill="white"/>
    <path d="M256 160c-52.9 0-96 43.1-96 96v32h192v-32c0-52.9-43.1-96-96-96zm-48 96c0-26.5 21.5-48 48-48s48 21.5 48 48v32h-96v-32z" fill="black"/>
    <path d="M336 288H176c-17.7 0-32 14.3-32 32v128c0 17.7 14.3 32 32 32h160c17.7 0 32-14.3 32-32V320c0-17.7-14.3-32-32-32z" fill="black"/>
  </mask>
  
  <rect width="512" height="512" rx="128" fill="url(#grad)"/>
  
  <!-- Lock Body -->
  <path fill="white" d="M256 144c-61.9 0-112 50.1-112 112v32h-16c-26.5 0-48 21.5-48 48v128c0 26.5 21.5 48 48 48h256c26.5 0 48-21.5 48-48V336c0-26.5-21.5-48-48-48h-16v-32c0-61.9-50.1-112-112-112zm0 48c35.3 0 64 28.7 64 64v32H192v-32c0-35.3 28.7-64 64-64z"/>
  
  <!-- Keyhole -->
  <circle cx="256" cy="384" r="24" fill="url(#grad)"/>
  <path d="M256 384L236 432h40L256 384z" fill="url(#grad)"/>
</svg>
